# generated from PmQm by Jehee Lee
:FULLY-SPECIFIED
:DEGREES
245
root 109.4383766 37.9889 14.07203931 2.816100247 -21.355662 -7.879007515
RightUpLeg -27.1752786 3.801676763 8.923766719
RightLeg 24.93114252 0 0
RightFoot -0.4584924605 9.243732599 -4.351713221
RightToes 2.32829e-010 -1.59028e-015 9.93923e-017
Spine -7.82617 -4.18321 4.85693
Spine1 13.5892 -5.81217 5.89013
HEad -11.1141 2.29806 0.547046
LeftShoulder1 9.93923e-017 0 1.22299e-017
LeftArm 2.37092 30.3708 -83.2703
LeftForeArm -21.1373 -14.5294 -2.58577
LeftHand 0.879318 6.09409 -2.61043
RightShoulder 1.98785e-016 -4.96962e-017 1.55301e-017
RightArm 3.13328 -53.2422 81.7141
RightForeArm -23.927 14.2745 0.861444
RightHand 1.12761 -10.7757 -3.38363
LeftUpLeg 2.274982324 -4.514840319 14.33160878
LeftLeg 48.60959398 1.405453571 4.7714749
LeftFoot 20.69177222 3.714142088 -16.0690548
LeftToes 8.82235e-011 9.04645e-011 1.87288e-011
246
root 108.6591325 38.2368 15.40965688 2.703483028 -22.7621997 -8.099655822
RightUpLeg -24.38537118 4.295915486 9.746119055
RightLeg 25.40343149 0 0
RightFoot -3.070753428 10.16793296 -5.579228638
RightToes 2.32829e-010 -1.59028e-015 9.93923e-017
Spine -7.471 -3.38381 6.01816
Spine1 13.8059 -4.71277 5.16031
HEad -10.7382 0.819757 1.88153
LeftShoulder1 9.93923e-017 0 1.22299e-017
LeftArm -1.51826 33.0471 -83.3931
LeftForeArm -15.0812 -9.44565 -6.17775
LeftHand 0.93976 6.5249 -4.42647
RightShoulder 1.98785e-016 -4.96962e-017 1.55301e-017
RightArm 4.08717 -48.0352 83.6402
RightForeArm -24.1846 14.0368 1.48387
RightHand 1.15347 -10.7282 -4.27077
LeftUpLeg -3.422898822 -5.513772627 13.61358818
LeftLeg 55.66237226 1.665417599 9.219247035
LeftFoot 20.85605626 2.704446919 -12.46303685
LeftToes 8.82235e-011 9.04645e-011 1.87288e-011
247
root 107.8416738 38.6402 16.78319586 2.354249884 -24.40254459 -7.402270531
RightUpLeg -20.82240952 4.687784351 9.77226823
RightLeg 24.07483614 0 0
RightFoot -4.751453712 11.3855585 -6.102079457
RightToes 2.32829e-010 -1.59028e-015 9.93923e-017
Spine -7.67037 -2.51773 6.47335
Spine1 13.688 -3.46845 3.80072
HEad -9.14405 -0.707546 2.91489
LeftShoulder1 9.93923e-017 0 1.22299e-017
LeftArm 1.10318 36.3486 -82.924
LeftForeArm -14.1159 -7.68597 -7.38561
LeftHand 1.00284 7.13454 -6.18465
RightShoulder 1.98785e-016 -4.96962e-017 1.55301e-017
RightArm 7.34038 -43.5911 85.2189
RightForeArm -27.2352 15.2275 0.003924370001
RightHand 1.18297 -10.6363 -5.35387
LeftUpLeg -8.88736128 -6.504850994 11.70107412
LeftLeg 59.4999339 0.642969285 11.73339049
LeftFoot 17.36549012 1.188963773 -9.244915018
LeftToes 8.82235e-011 9.04645e-011 1.87288e-011
248
root 107.0283599 38.9605 18.11331265 1.8937833 -26.4867728 -6.471371253
RightUpLeg -17.31460475 4.349038761 9.521167043
RightLeg 22.78256903 0 0
RightFoot -6.650290525 13.55381157 -6.233010111
RightToes 2.32829e-010 -1.59028e-015 9.93923e-017
Spine -7.83645 -1.43061 7.21708
Spine1 13.4939 -1.89804 1.99475
HEad -7.51557 -2.16027 3.22743
LeftShoulder1 9.93923e-017 0 1.22299e-017
LeftArm 3.31971 40.2464 -81.5602
LeftForeArm -12.7848 -8.16886 -7.155
LeftHand 1.03904 7.59664 -7.14162
RightShoulder 1.98785e-016 -4.96962e-017 1.55301e-017
RightArm 13.4859 -40.2862 86.3907
RightForeArm -35.0111 17.704 -4.95831
RightHand 1.18406 -10.5387 -5.75478
LeftUpLeg -13.66310177 -7.202233967 9.646547682
LeftLeg 60.30497765 -1.175211055 11.03609881
LeftFoot 14.11096788 0.70158487 -8.406007501
LeftToes 8.82235e-011 9.04645e-011 1.87288e-011
249
root 106.2374705 39.1443 19.39093204 1.417902511 -28.97494514 -5.630750313
RightUpLeg -14.1840483 3.927109391 9.095205551
RightLeg 22.14682913 0 0
RightFoot -8.71109496 16.28027298 -6.764684335
RightToes 2.32829e-010 -1.59028e-015 9.93923e-017
Spine -7.68166 -0.17435 8.22232
Spine1 13.3304 -0.160738 0.328532
HEad -6.7365 -3.35321 3.01867
LeftShoulder1 9.93923e-017 0 1.22299e-017
LeftArm 5.60205 44.353 -79.4347
LeftForeArm -13.5077 -8.53464 -6.98397
LeftHand 1.03691 7.58639 -7.36546
RightShoulder 1.98785e-016 -4.96962e-017 1.55301e-017
RightArm 23.2456 -37.7105 87.0416
RightForeArm -47.9143 19.9529 -13.667
RightHand 1.16294 -10.4491 -5.53183
LeftUpLeg -17.7440874 -7.186255272 7.954226514
LeftLeg 58.62128237 -3.232039973 8.361330267
LeftFoot 11.5661686 0.7071412769 -8.717080132
LeftToes 8.82235e-011 9.04645e-011 1.87288e-011
250
root 105.4545289 39.2712 20.65865759 1.099489547 -31.8050931 -4.922925466
RightUpLeg -11.33679879 3.654920374 8.556937792
RightLeg 21.65706875 0 0
RightFoot -10.71998371 19.34734525 -8.088898054
RightToes 2.32829e-010 -1.59028e-015 9.93923e-017
Spine -7.50668 1.16492 9.12466
Spine1 13.1693 1.53409 -1.02202
HEad -6.76522 -4.21988 2.61991
LeftShoulder1 9.93923e-017 0 1.22299e-017
LeftArm 7.35789 48.1467 -76.6541
LeftForeArm -14.7028 -10.3329 -5.82241
LeftHand 1.0147 7.29527 -7.40219
RightShoulder 1.98785e-016 -4.96962e-017 1.55301e-017
RightArm 27.874 -35.0547 86.6223
RightForeArm -54.4254 21.509 -20.8458
RightHand 1.13653 -10.2799 -5.47069
LeftUpLeg -21.23237573 -6.083744272 6.633380673
LeftLeg 54.53382848 -4.985631102 5.588583148
LeftFoot 8.115470733 0.5005230274 -8.51877395
LeftToes 8.82235e-011 9.04645e-011 1.87288e-011
251
root 104.6787068 39.3511 21.90482235 1.016957708 -34.77878595 -4.488174633
RightUpLeg -8.636507069 3.304739466 8.093828872
RightLeg 21.05197078 0 0
RightFoot -12.97544616 22.45088607 -9.673828845
RightToes 2.32829e-010 -1.59028e-015 9.93923e-017
Spine -7.5167 2.4629 10.0566
Spine1 13.1436 3.04149 -2.25914
HEad -7.17577 -4.74753 2.14411
LeftShoulder1 9.93923e-017 0 1.22299e-017
LeftArm 9.71386 51.2335 -73.7732
LeftForeArm -17.2206 -12.4679 -4.32667
LeftHand 1.00603 7.18139 -7.52092
RightShoulder 1.98785e-016 -4.96962e-017 1.55301e-017
RightArm 23.4667 -31.7158 85.2526
RightForeArm -49.3998 24.6436 -22.8614
RightHand 1.11765 -10.0563 -5.86373
LeftUpLeg -23.97084896 -3.986989212 5.687766443
LeftLeg 47.82435921 -6.161579815 3.542856782
LeftFoot 4.718740439 0.3517049565 -8.468985919
LeftToes 8.82235e-011 9.04645e-011 1.87288e-011
252
root 103.9145077 39.3275 23.0990355 1.051730048 -37.49343493 -4.55317852
RightUpLeg -5.935288586 2.7976569 7.858108129
RightLeg 20.63258708 0 0
RightFoot -15.53190595 25.12703778 -10.87741938
RightToes 2.32829e-010 -1.59028e-015 9.93923e-017
Spine -7.50674 3.43618 11.2677
Spine1 13.3803 4.13737 -3.40054
HEad -7.70232 -4.95186 1.66868
LeftShoulder1 9.93923e-017 0 1.22299e-017
LeftArm 9.94681 53.4464 -71.1492
LeftForeArm -17.9221 -13.2168 -3.49391
LeftHand 1.0069 7.19274 -7.40753
RightShoulder 1.98785e-016 -4.96962e-017 1.55301e-017
RightArm 21.8119 -28.0745 84.0461
RightForeArm -46.3925 27.0863 -24.6167
RightHand 1.13036 -10.0345 -6.34538
LeftUpLeg -25.52072484 -1.770475326 5.101201582
LeftLeg 38.56663737 -6.842208587 2.126122439
LeftFoot 3.904172618 0.5811500715 -8.987962102
LeftToes 8.82235e-011 9.04645e-011 1.87288e-011
